<svg width="192" height="192" fill="none" xmlns="http://www.w3.org/2000/svg"><path d="M145.104 139.966c1.987-2.047.068-5.299-2.778-5.079a67.634 67.634 0 0 1-5.233.202c-36.97 0-66.94-29.947-66.94-66.887 0-11.362 2.835-22.062 7.837-31.433 1.346-2.52-.872-5.582-3.546-4.57C49.522 41.628 31.8 65.73 31.8 93.975 31.8 130.44 61.336 160 97.77 160c18.569 0 35.346-7.677 47.334-20.034Z" fill="#6D6D6D"/><path fill-rule="evenodd" clip-rule="evenodd" d="M117.951 51.813c-.32-.457-.735-1.133-1.987-2.886.026.026-5.996-7.71-5.996-7.71-.741-.952-.554-1.111.411-.361l7.681 5.974c1.723 1.231 2.416 1.663 2.879 1.988.457-.32 1.133-.735 2.886-1.987-.026.026 7.711-5.996 7.711-5.996.952-.741 1.11-.554.36.41l-5.974 7.682c-1.231 1.723-1.663 2.416-1.987 2.879.32.457.734 1.133 1.987 2.886-.026-.026 5.996 7.71 5.996 7.71.741.952.553 1.111-.411.361l-7.682-5.974c-1.722-1.23-2.416-1.663-2.879-1.988-.456.32-1.132.735-2.886 1.988.026-.026-7.71 5.995-7.71 5.995-.952.741-1.111.554-.361-.41l5.975-7.682c1.23-1.723 1.662-2.416 1.987-2.879ZM152.142 92.369c.013.012-2.795-3.594-2.795-3.594-.348-.448-.262-.524.188-.174l3.586 2.789c.804.574 1.128.776 1.344.928.213-.15.529-.343 1.347-.928-.012.012 3.594-2.795 3.594-2.795.448-.348.524-.262.174.188l-2.789 3.586c-.575.804-.776 1.127-.928 1.344.15.213.343.528.928 1.347-.012-.012 2.795 3.594 2.795 3.594.348.447.262.523-.188.173l-3.586-2.789c-.804-.574-1.128-.776-1.344-.927-.213.15-.528.343-1.347.927.012-.012-3.594 2.795-3.594 2.795-.447.348-.524.263-.174-.187l2.789-3.586c.575-.804.777-1.128.928-1.344-.149-.213-.343-.529-.928-1.347Z" fill="#E4E4E4"/></svg>