<svg width="192" height="192" fill="none" xmlns="http://www.w3.org/2000/svg"><path d="M155.975 78.079c.017-.5.025-1.003.025-1.508C156 51.955 136.122 32 111.6 32c-19.452 0-35.982 12.557-41.986 30.038A30.969 30.969 0 0 0 55.2 58.502c-17.231 0-31.2 14.023-31.2 31.32 0 17.298 13.969 31.321 31.2 31.321h90c12.592 0 22.8-10.247 22.8-22.888a22.896 22.896 0 0 0-12.025-20.176Z" fill="#E4E4E4"/><path fill-rule="evenodd" clip-rule="evenodd" d="M45.6 132a4 4 0 0 1 4-4h92a4 4 0 0 1 0 8h-92a4 4 0 0 1-4-4Zm0 16a4 4 0 0 1 4-4h92a4 4 0 0 1 0 8h-92a4 4 0 0 1-4-4Zm4 12a4 4 0 0 0 0 8h92a4 4 0 0 0 0-8h-92Z" fill="#858585"/></svg>