<svg width="192" height="192" fill="none" xmlns="http://www.w3.org/2000/svg"><path fill-rule="evenodd" clip-rule="evenodd" d="M92.207 75.225 78.291 61.823c-1.636-1.575-1.651-4.115-.008-5.697 1.63-1.57 4.278-1.568 5.915.009l8.009 7.713V39.917c0-2.229 1.854-4.035 4.177-4.035 2.306 0 4.176 1.782 4.176 4.035v24.06l8.143-7.842c1.636-1.576 4.273-1.59 5.915-.009 1.632 1.571 1.629 4.12-.008 5.697l-14.05 13.531v61.061l14.096 13.575c1.637 1.577 1.639 4.126.008 5.697-1.642 1.582-4.279 1.567-5.915-.008l-8.189-7.887v24.173c0 2.228-1.853 4.035-4.176 4.035-2.307 0-4.177-1.782-4.177-4.035v-24.157l-8.172 7.871c-1.637 1.577-4.284 1.579-5.915.008-1.643-1.582-1.628-4.122.008-5.697l14.079-13.559V75.225Z" fill="#E4E4E4"/><path fill-rule="evenodd" clip-rule="evenodd" d="m124.511 117.417 18.475-5.361c2.172-.63 4.368.626 4.913 2.841.541 2.199-.779 4.492-2.952 5.123l-10.633 3.086 18.849 12.08c1.92 1.114 2.554 3.624 1.397 5.638-1.148 1.999-3.615 2.729-5.556 1.602l-18.96-12.144 2.703 10.979c.543 2.206-.758 4.499-2.938 5.131-2.166.629-4.361-.648-4.904-2.856l-4.663-18.943-52.607-30.53-18.713 5.43c-2.173.631-4.37-.642-4.912-2.841-.545-2.215.78-4.493 2.952-5.123l10.871-3.155-19.057-12.2c-1.92-1.115-2.554-3.625-1.398-5.639 1.149-2 3.615-2.729 5.556-1.602l19.044 12.193-2.712-11.02c-.544-2.207.772-4.502 2.938-5.13 2.18-.633 4.36.65 4.904 2.855l4.672 18.983 52.731 30.603Z" fill="#E4E4E4"/><path fill-rule="evenodd" clip-rule="evenodd" d="m71.589 124.719-4.619 18.764c-.543 2.205-2.723 3.488-4.904 2.856-2.165-.629-3.48-2.924-2.938-5.132l2.659-10.799-18.85 12.08c-1.92 1.115-4.4.411-5.556-1.602-1.148-2-.544-4.512 1.397-5.638l18.96-12.145-10.81-3.137c-2.171-.63-3.497-2.908-2.952-5.123.542-2.199 2.74-3.472 4.913-2.841l18.652 5.412 52.606-30.53 4.679-19.005c.543-2.208 2.738-3.485 4.904-2.856 2.18.633 3.48 2.926 2.938 5.131l-2.718 11.041 19.057-12.2c1.92-1.115 4.4-.411 5.556 1.602 1.149 2 .544 4.512-1.397 5.638l-19.044 12.193 10.849 3.148c2.174.631 3.494 2.924 2.953 5.124-.546 2.214-2.741 3.471-4.913 2.84l-18.691-5.423-52.731 30.602Z" fill="#E4E4E4"/><path d="M87.122 75.645 75.568 64.581c-3.27-3.133-3.286-8.269-.009-11.407 3.173-3.039 8.25-3.033 11.425.008l1.427 1.2V39.736c0-4.451 3.673-7.99 8.157-7.99 4.476 0 8.157 3.522 8.157 7.99v14.646l1.562-1.2c3.176-3.042 8.243-3.055 11.424-.008a7.86 7.86 0 0 1-.008 11.407l-11.554 11.064h13.154l2.171-8.77a7.878 7.878 0 0 1 9.869-5.705c4.235 1.222 6.755 5.612 5.698 9.881l-.582 2.294 6.668-4.62a15.05 15.05 0 0 0 2.548-8.394c0-5.84-3.327-10.917-8.222-13.5.012-.335.017-.67.017-1.009 0-16.47-13.592-29.822-30.359-29.822-13.3 0-24.603 8.402-28.708 20.098a21.549 21.549 0 0 0-9.856-2.366c-11.782 0-21.333 9.383-21.333 20.957 0 6.645 3.149 12.569 8.061 16.408l-.023-.093c-1.056-4.268 1.475-8.664 5.698-9.882a7.87 7.87 0 0 1 9.87 5.705l2.182 8.818h14.12Z" fill="#E4E4E4"/></svg>