<svg width="192" height="192" fill="none" xmlns="http://www.w3.org/2000/svg"><path fill-rule="evenodd" clip-rule="evenodd" d="M54.79 86.289c15.74 0 28.5-12.76 28.5-28.5s-12.76-28.5-28.5-28.5c-15.741 0-28.5 12.76-28.5 28.5s12.759 28.5 28.5 28.5Z" fill="#6D6D6D"/><path d="M155.975 78.507a45.27 45.27 0 0 0 .025-1.522c0-24.853-19.878-45-44.4-45-19.452 0-35.982 12.678-41.986 30.326A30.733 30.733 0 0 0 55.2 58.74C37.969 58.741 24 72.9 24 90.363s13.969 31.622 31.2 31.622h90c12.592 0 22.8-10.346 22.8-23.109 0-8.812-4.867-16.472-12.025-20.37Z" fill="#E4E4E4"/><path fill-rule="evenodd" clip-rule="evenodd" d="M108.427 133.368a4 4 0 0 1 7.609 2.472L105.7 167.65a4 4 0 1 1-7.609-2.472l10.336-31.81Zm-16.106 0a4 4 0 1 1 7.609 2.472L86.3 177.787a4 4 0 0 1-7.608-2.473l13.63-41.946ZM81.256 130.8a4 4 0 0 0-5.04 2.568l-7.043 21.674a4 4 0 1 0 7.609 2.472l7.042-21.674a4 4 0 0 0-2.568-5.04Z" fill="#6490E7"/></svg>