<svg version="1.0" xmlns="http://www.w3.org/2000/svg" width="1365.333" height="1365.333" viewBox="0 0 1024 1024"><path d="M419.5 85.6c-9.4 1.4-17.1 6-27 15.9-44.2 44.4-78.5 92.9-89.3 126-5.2 15.8-6.8 29.4-5.3 42.3 1.5 12.2 4.2 24.6 6.2 28.4.5 1 .9 2.2.9 2.8 0 2.3 8.4 18.7 13.5 26.4 27.2 40.9 77.8 63.5 125.6 56.1 29.6-4.5 52.7-16.2 73.5-36.9 17-17 28.3-36.6 33.2-57.6.6-2.5 1.6-6.7 2.2-9.4 1.7-7.5 1.4-31.8-.5-39.9-3-12.8-4.2-16.1-11.9-31.7-6.7-13.7-8.8-17.3-16.8-29.3-16.6-24.9-38.3-51.2-61.3-74.3-14.4-14.5-20.3-17.9-32.5-18.7-4.1-.3-8.8-.3-10.5-.1zm16.3 118.9c11.4 14.3 22 30.2 27.5 41.4 3.7 7.6 4.2 9.4 4.2 15.6 0 7.7-1.2 11.5-6.3 19.1-7.6 11.7-19.6 17.6-35.2 17.6-9.9 0-16-1.7-23.3-6.4-10.1-6.5-18.7-20.3-18.7-30.1 0-8.8 11.4-29.9 27.4-50.8 8.3-10.8 14.1-17.8 14.7-17.9.3 0 4.7 5.2 9.7 11.5zm238 94.9c-2.5.6-5 1.4-5.4 1.8-.4.5-1.4.8-2.1.8-4.5 0-19 13.3-39.3 36-4.7 5.2-9.3 10.4-10.4 11.5-1 1.1-8.4 9.6-16.5 19-57.8 67.1-101.9 127.8-131.7 181.5-20.8 37.3-33 68.1-39.6 99.5-2 9.8-2.3 13.7-2.2 35 0 26 1.1 35.2 6.6 58.5 5.8 24.3 19.6 57.7 29.9 72.2 1.1 1.4 1.9 2.9 1.9 3.3 0 .9 7.5 11.8 13.4 19.5 13.5 17.8 32.9 37.1 49.6 49.6 9.6 7.2 21.5 15.4 22.3 15.4.3 0 3.4 1.7 6.8 3.8 8.7 5.2 22 11.4 34.4 16.1 3.3 1.3 8.2 3.1 10.9 4.2 2.7 1 5.5 1.9 6.3 1.9.7 0 4.2.9 7.6 1.9 8.2 2.5 20.8 5.1 35.1 7.1 9.8 1.5 55.8 1.5 60.6 0 1.9-.5 4.9-1 6.7-1 1.8 0 5.2-.4 7.5-.9 16.1-3.6 23.6-5.3 25.8-6 1.4-.5 5.9-1.9 10-3.2 4.1-1.2 7.9-2.6 8.4-3.1.6-.4 1.6-.8 2.3-.8 2.2 0 27.2-11.8 37.1-17.6 10.6-6 29.7-19.7 39.2-27.8 10.7-9.3 27.3-27 35.5-37.9 1.7-2.3 5-6.7 7.2-9.7 7.6-10.1 22.4-37 27.3-49.5.4-1.1 1.2-3.1 1.8-4.5 1.3-2.8 8.9-26.7 10.2-32 .5-1.9 1.3-5.5 1.9-8 .9-4.2 1.4-6.8 4.1-24.6 1.5-9.8 1.6-46.4.1-53.9-2.6-13.3-3.2-16.2-4.3-20.5-.6-2.5-1.7-6.5-2.5-9-.9-2.5-1.9-5.9-2.3-7.5-1-3.6-6.2-18-8.3-22.7-.8-1.8-2.3-5.3-3.4-7.7-4.1-10.1-22.5-45.5-26.5-51.3-1-1.4-1.8-2.8-1.8-3.1 0-.7-7.6-13.2-11.1-18.4-1.6-2.3-2.9-4.4-2.9-4.8 0-.6-13.1-20.1-24.2-36-5.8-8.2-29.9-40.6-34.7-46.5-1.1-1.4-6.8-8.6-12.8-16-13.6-17.1-12-15.1-19.9-24.5-11.9-14.2-22.1-26.2-23.4-27.5-.3-.3-2.3-2.5-4.4-5-6.6-7.5-19.8-22.1-26.2-29-3.3-3.6-8.5-9.1-11.5-12.4-5.2-5.6-15.7-13.6-17.9-13.6-.5 0-1.8-.4-2.8-.9-2.6-1.5-10.7-3.1-14.4-3-1.8.1-5.4.6-8 1.3zm17.8 116.8c5 5.7 12.8 14.8 17.4 20.3 4.7 5.5 8.7 10.2 9.1 10.5 3.2 2.8 42.1 53.1 57.6 74.5 10.6 14.7 37.3 55.6 37.3 57.2 0 .3.8 1.7 1.8 3.1 6.6 9.5 21.3 39.2 27.7 56.2 7.8 20.6 8.9 26.5 8.9 46.5 0 21-1.4 30.3-7.8 50.5-3.5 11.3-10.9 27.4-15.8 34.7-1.5 2.3-2.8 4.4-2.8 4.8 0 .3-3.3 4.9-7.2 10.3-13 17.4-33 35.4-50.3 45.2-19.3 11-32.9 15.9-58.5 21.2-8.7 1.8-45.1 1.8-54 0-21.3-4.3-30.7-7.5-48.5-16.3-39.9-19.7-71.1-55.7-85.3-98.4-10-30.1-11.7-56.7-5.3-80.5.6-1.9 1.4-5.1 1.9-7 .9-3.2 3-9.2 5.2-14.5.5-1.1 1.7-4 2.6-6.5 3-7.4 19.6-39.9 24.8-48.5 12.3-20.2 16.4-26.6 31.5-48.6 15.3-22.3 64.8-86.2 71.2-91.9.3-.3 3.2-3.7 6.4-7.5 3.2-3.9 8.6-10.2 12-14 3.4-3.9 7-8 8.1-9.3 1-1.2 2.1-2.2 2.4-2.2.4 0 4.7 4.6 9.6 10.2zm-486.8 11.2c-3.1.6-6 1.4-6.4 1.8-.4.5-1.4.8-2.1.8-2.5 0-12.7 7.6-18.2 13.6-3 3.3-8.2 8.8-11.5 12.4-14.4 15.3-30.8 35.1-41.9 50.3-6.6 9.2-15.7 22.6-15.7 23.3 0 .3-.8 1.8-1.9 3.2-6.6 9.4-16.9 32.8-20.2 46.2-2.4 9.8-3 33-1 42.1 4 18 4.5 19.5 11.1 33.4 2.4 4.9 6.5 12.2 9.2 16.2 8 12 26.8 29.7 38.7 36.6 7.4 4.2 17.7 9.2 21.6 10.5 2.2.7 4.9 1.7 6 2.2 2.2.9 7.6 2.3 14.5 3.9 32.1 7.3 69.6-.3 98.5-19.9 8.6-5.9 15.5-11.8 22-19 2.8-3 5.2-5.7 5.5-6 1.6-1.5 7-9.3 10.2-14.5 5.4-9.1 8.3-15.3 11.2-23.7 5.1-15.3 6-21.3 6.1-38.8 0-16.1-.4-19.2-4-30.5-10.4-32.5-39.4-75.2-81.5-120-16.8-17.8-21.9-21.4-34.4-24.1-7-1.5-8.1-1.5-15.8 0zm23.7 126.1c12.2 16.1 19.7 28.8 25.4 42.8 3 7.4-1.3 21.4-9.1 29.8-20.8 22.2-57.8 16.7-70.8-10.6-1.8-3.8-2.4-6.8-2.4-12.5-.1-6.6.4-8.4 3.4-14.5 6.7-13.7 16-27.6 30.9-46.3l6.6-8.3 3.8 4.3c2.1 2.4 7.6 9.2 12.2 15.3z" fill="currentColor"/></svg>