<svg version="1.0" xmlns="http://www.w3.org/2000/svg" width="1365.333" height="1365.333" viewBox="0 0 1024 1024"><path d="M552 128.3c-.3.3-5.5 1-11.5 1.7-16.3 1.6-33.3 4.6-45 8-2.2.6-5.6 1.5-7.5 1.9-16.3 3.8-51.6 18.5-67.9 28.3-3.4 2.1-6.5 3.8-6.8 3.8-.2 0-2.4 1.3-4.8 3-2.4 1.6-4.7 3-5.2 3-.4 0-3 1.7-5.8 3.8-2.7 2.1-7.7 5.6-11 7.9-3.3 2.3-6.9 4.9-8 6-1.1 1-2.9 2.5-4.1 3.3-10 7-41.7 38.6-48.3 48.3-.8 1.2-1.7 2.4-2 2.7-.4.3-2.6 3.2-5 6.5-2.5 3.3-5.7 7.7-7.3 9.7-1.5 2-2.8 4-2.8 4.3 0 .3-2.2 3.9-5 8-2.7 4.1-5 7.7-5 8.1 0 .3-.8 1.8-1.9 3.2-2 2.9-11.7 21.7-14.9 29.2-5.5 12.5-10.8 27-14.2 39-.7 2.5-1.6 5.6-2 7-.5 1.4-1.3 4.7-2 7.5-.6 2.7-1.5 6.6-2 8.5-.5 1.9-1.2 5.1-1.4 7-.3 1.9-1 6.2-1.6 9.5-4.8 27.5-5.2 66.9-.9 95.5 6.8 45.6 21.2 85.1 45.2 124l4.6 7.5-83.3 83.5c-77.2 77.4-91.6 92.6-91.6 97 0 .5-.4 1.8-.9 2.8-3.8 7.5-4.4 11-4.4 24.7 0 11.4.4 15.5 2.3 20 .4 1.1 1.4 3.6 2.1 5.5 1.7 4.6 8.2 14.5 12.8 19.4 4.2 4.5 16.1 12.7 21.1 14.5 1.9.7 4.4 1.7 5.5 2.1 4.5 1.9 8.6 2.3 20 2.3s15.5-.4 20-2.3c1.1-.4 3.6-1.4 5.5-2.1 9.8-3.6 17.9-11.2 99.9-93.3 45.4-45.4 82.7-82.3 83-82.2.3.2 3.8 2.3 7.6 4.6 16 9.8 29.6 16.7 48 24.5 7.5 3.2 26.1 9.7 33 11.5 22 5.9 37.5 8.7 60.5 11.1 12.7 1.3 48.9.7 63-1 11.8-1.4 26.6-4 34.8-6 2.3-.6 5.9-1.5 8-2 2-.5 5.4-1.4 7.5-2 2-.6 5.2-1.5 7-2 16.1-4.5 41.4-15.1 58.2-24.5 11.1-6.1 13.8-7.7 19.4-11.4 3.1-2 6.4-4.2 7.2-4.7 12.5-7.8 34-25.5 47.9-39.5 14-13.9 31.6-35.3 39.5-47.8.6-.9 3.1-4.9 5.8-8.9 2.6-4 4.7-7.4 4.7-7.7 0-.2 1.7-3.3 3.8-6.7 5.6-9.4 13.3-25.8 18.1-38.4 1.3-3.3 2.7-6.9 3.1-8 1.1-2.6 4.4-12.8 6-18.5.7-2.5 1.6-5.6 2-7 .5-1.4 1.3-4.8 2-7.5.6-2.8 1.5-6.6 2-8.5.5-1.9 1.2-5.3 1.5-7.5.4-2.2 1.1-6.3 1.5-9 4.8-27.7 4.8-74.1 0-102-.4-2.8-1.1-6.8-1.5-9-.3-2.2-1-5.6-1.5-7.5-.5-1.9-1.4-5.8-2-8.5-.7-2.8-1.5-6.1-2-7.5-.4-1.4-1.3-4.5-2-7-6.1-21.5-17.4-48.5-27.2-64.9-2.1-3.4-3.8-6.5-3.8-6.7 0-.2-2.1-3.6-4.7-7.6-2.7-4-5.2-8-5.8-8.9-2.5-4.1-11.5-16.6-13.2-18.4-1-1.1-2.6-3-3.4-4.2-6.8-9.8-38.7-41.7-48.2-48.2-1.2-.8-2.4-1.7-2.7-2-.3-.4-3.2-2.6-6.5-5-3.3-2.5-7.7-5.7-9.7-7.3-2-1.5-4-2.8-4.3-2.8-.3 0-3.9-2.3-8-5-4.1-2.8-7.6-5-7.9-5-.2 0-3.3-1.7-6.7-3.8-16.6-9.9-43.5-21.2-64.9-27.2-2.5-.7-5.6-1.6-7-2-1.4-.5-4.7-1.3-7.5-2-2.7-.6-6.6-1.5-8.5-2-1.9-.5-5.1-1.2-7-1.4-1.9-.3-6.2-1-9.5-1.6-14.5-2.5-23.6-3.2-48-3.7-14.3-.3-26.2-.3-26.5 0zm47 98.2c14.9 1.8 24.7 3.6 35.5 6.6 2.2.6 5.1 1.3 6.5 1.6 1.4.3 3 .9 3.5 1.3.6.3 3 1.2 5.5 2 2.5.7 4.9 1.7 5.5 2.2.5.4 1.6.8 2.5.8 1.5 0 24.4 11.2 32.4 15.8 17 9.9 37 26.7 51.6 43.2 4.1 4.7 7.7 8.7 8 9 2.6 2.6 13.1 17.6 17.4 25.1 4.4 7.4 15.6 30.5 15.6 32 0 .8.4 1.9.8 2.4.5.6 1.5 3 2.2 5.5.8 2.5 1.7 4.9 2 5.5.4.5 1 2.1 1.3 3.5.3 1.4 1 4.3 1.6 6.5 7.3 26.9 9.7 56.6 6.6 82.5-1.9 15.3-2 16.3-5.7 32-1.3 5.8-6.6 22-7.8 24.2-.6 1-1 2.3-1 2.9 0 1.3-11.7 25.2-15.5 31.8-17.3 29.4-48.4 60.5-77.6 77.5-7.1 4.2-30.7 15.6-32.2 15.6-.7 0-1.7.4-2.3.8-.5.5-2.9 1.5-5.4 2.2-2.5.8-4.9 1.7-5.5 2-.5.4-2.1 1-3.5 1.3-1.4.3-6.1 1.5-10.5 2.7-9.2 2.4-15.4 3.5-31.5 5.5-24.4 3.1-51.8 1.2-77-5.2-16.7-4.3-18.6-4.9-29-9.1-42.5-17-78-45.9-103.7-84.2-4.3-6.4-15.3-25.6-15.3-26.6 0-.2-1.1-2.7-2.4-5.6-4.4-9.6-7.5-17.9-9.6-25.3-11.1-39.9-12.6-67.5-6.1-107 1.8-10.8 8.5-34 11.1-38.7.6-1 1-2.3 1-3 0-1.3 11.6-25 15.6-31.7 10.6-18.2 28-39 44.4-53.1 4.1-3.6 7.7-6.7 8-7 .3-.3 3-2.4 6-4.6 10.4-7.9 21.5-14.5 35.5-21.4 19.8-9.7 40.5-16.3 62.5-20 19.4-3.2 40.1-3.7 59-1.5z" fill="currentColor"/></svg>