<svg version="1.0" xmlns="http://www.w3.org/2000/svg" width="1365.333" height="1365.333" viewBox="0 0 1024 1024"><path d="M502 1c0 .5-.7 1-1.6 1-.9 0-4.3 1.4-7.6 3.2-6.5 3.4-14.5 11.5-17.3 17.4-4.4 9.3-4.5 11-4.5 75.4v61.4l-24.7-24.5c-30-29.6-32.8-31.4-49.5-30.7-11.3.4-17.6 3-25.9 10.6-13.6 12.5-16.8 34-7.3 49.4 1.4 2.4 26.2 27.9 55 56.8l52.4 52.5.6 84.1c.5 50.4.4 84.3-.2 84.6-.7.5-124.1-70.1-142-81.2-4.8-3-5.1-3.5-6.7-9.8-1.6-6.6-4.9-18.9-10.2-38.7-3-11.3-5.6-21.1-8.5-32-1.1-4.1-2.9-11-4.1-15.3-2.7-10-8.7-33-10.6-40.7-2.5-10-6.8-17.8-12.6-23.2-8.8-7.9-17.1-11.3-28.1-11.3-17.7.1-31.1 9.9-38.5 28.3-1.8 4.4-1.3 19.1.8 26.6 1 3.6 2.9 10.4 4.1 15.1 1.2 4.7 2.6 9.6 3 11 .4 1.4 1.8 6.3 3 11s2.8 10.5 3.6 12.9c.8 2.5 1.2 4.7.9 4.9-.6.6-4.6-1.3-11-5.2-4.2-2.5-23.7-13.8-38.7-22.5-1.8-1-7.3-4.2-12.3-7.1-9.2-5.3-12.8-7.4-19-11-4.9-2.8-8.9-5.1-17.2-10-10.5-6-16.6-8-24.7-8-14 0-25.6 6.3-33.5 18-5.1 7.6-6.6 12.9-6.5 23.5 0 8 .4 9.7 3.3 15.7 5.4 11.3 9.5 14.5 45.2 34.9 17.7 10.1 34 19.5 36.3 20.8 2.2 1.3 5.6 3.2 7.3 4.2 19.9 11.4 27.9 16.1 29 17.3 1 .9-1 1.7-9.5 3.9-5.9 1.5-13.8 3.6-17.7 4.6-3.8 1-11.5 3.1-17 4.6-18.3 4.8-20.4 5.6-26.5 9.7-12.9 8.6-20 25.4-17 40.1 1.8 8.8 5.4 15.3 11.8 21.5 6.2 6.1 13 9.5 22.1 11.2 6.7 1.2 10.9.7 24.6-3.1 9.3-2.5 42-11.4 52-14 4.4-1.2 10.9-3 14.5-3.9 3.6-1 19.4-5.3 35.2-9.5l28.7-7.7 18.8 11c22.2 12.9 111.1 64 120.1 69.1 3.4 1.9 6.2 4 6.2 4.6 0 .6-1.9 2.2-4.2 3.5-4.4 2.4-60.1 34.5-111.6 64.2l-29.4 16.9-28.6-7.6c-15.8-4.2-31.6-8.5-35.2-9.5-3.6-.9-10.1-2.7-14.5-3.9-14.4-3.8-44.9-12-52-14-13.6-3.8-18.7-4.4-25.1-3.1-9.1 1.9-15.5 5.2-21.6 11.2-6.4 6.2-10 12.7-11.8 21.5-3 14.7 4.1 31.5 17 40.1 6.1 4.1 8.2 4.9 26.5 9.7 5.5 1.5 13.2 3.6 17 4.6 3.9 1 11.9 3.1 17.8 4.6 8.6 2.1 10.5 2.9 9.5 3.9-1.2 1.2-9.4 6-29.3 17.4-1.9 1.1-5 2.8-6.7 3.9-18.9 10.9-63.9 36.7-65.9 37.8-5.1 2.6-12.8 11.3-16.1 18.1-3 6.2-3.2 7.5-3.2 16.7 0 9.3.2 10.5 3.3 16.8 7 14.6 21 23.7 36.6 23.7 9.7 0 13.7-1.6 35.2-14.1 1.8-1.1 4.8-2.7 6.5-3.8 5.4-3.1 28.1-16.2 31.3-18.1 1.7-1 10.2-5.9 19-11s17.8-10.3 20-11.6c6.4-3.9 10.4-5.8 11-5.2.3.2-.1 2.4-.9 4.9-.8 2.4-2.4 8.2-3.6 12.9-2.3 8.8-6.2 22.9-9.9 36.2-1.4 5.1-2.1 10.5-2.1 16.3 0 7.7.4 9.4 3.3 15.8 7 15 20.5 23.7 36.8 23.7 10.4 0 19-3.5 27.5-11.2 5-4.7 9.8-12.6 11.4-19.2 1.1-4.1 5.3-20.2 7.9-29.9 1.2-4.2 3-11 4-15 1.1-3.9 3.2-11.7 4.6-17.2 1.5-5.5 4-14.7 5.5-20.5 11.2-42.7 14.6-54.6 16-55.7 1.4-1.2 11.4-7 78-45.6 15.7-9 37.1-21.4 47.5-27.5 10.5-6 19.4-10.7 19.9-10.4.6.3.7 34.5.3 84.5l-.6 84.1-52.4 52.5c-28.9 28.9-53.7 54.5-55.1 56.9-9.4 15.3-6.3 36.9 7 49.1 8.5 7.8 15.1 10.5 26.2 10.9 16.7.7 19.6-1.1 49.5-30.7l24.7-24.5v62c0 60.3.1 62.3 2.1 68.4 3.5 10.9 11.5 20.1 21.7 25.2 4.1 2 6.1 2.3 16.7 2.3 10.7 0 12.5-.3 17-2.5 6.1-2.9 16.4-13 18.9-18.5 4.5-9.5 4.6-11 4.6-75.5v-61.4l24.8 24.5c29.9 29.6 32.7 31.4 49.4 30.7 11.3-.4 17.6-3 25.9-10.6 13.6-12.5 16.8-34 7.3-49.4-1.4-2.4-26.2-27.9-55-56.8L552 751.4l-.7-84c-.4-50.6-.3-84.3.3-84.6.5-.4 23.9 12.7 51.9 28.9 28.1 16.2 60.9 35.2 72.9 42.2l22 12.7 2.7 10.4c1.5 5.8 3.9 15 5.4 20.5 2.7 10.2 5 18.8 8.5 32 1.1 4.1 2.9 10.9 4 15s2.9 11 4.1 15.3c2.7 10 8.7 33 10.6 40.7 2.5 10 6.8 17.8 12.6 23.2 8.8 7.9 17.1 11.3 28.1 11.3 17.8-.1 31.7-10.4 38.6-28.7 1.7-4.6.7-21.2-1.9-30.3-1.2-4.1-3.1-10.8-4.1-14.8-1.1-3.9-2.9-10.5-4-14.5-5.1-19.1-5.7-21.7-4.7-21.7.5 0 5.5 2.6 11.1 5.9 15.1 8.7 35.1 20.3 50.1 29.1 9.2 5.3 12.8 7.4 19 11 1.9 1.1 5 2.8 6.8 3.9 21.5 12.5 25.5 14.1 35.2 14.1 15.6 0 29.6-9.1 36.6-23.7 3.1-6.3 3.3-7.5 3.3-16.8 0-9.2-.2-10.5-3.1-16.5-3.2-6.7-11.3-15.8-16.1-18.3-1.5-.8-6.7-3.8-11.7-6.7-9-5.2-12.3-7.2-19-11-1.9-1.1-5-2.8-6.7-3.9-1.8-1-16.8-9.6-33.3-19-16.5-9.5-30.6-17.7-31.3-18.4-1.1-.9.1-1.5 5.5-2.8 3.7-.9 11.3-2.9 16.8-4.3 5.5-1.5 13.4-3.6 17.5-4.7 21.3-5.7 22.7-6.2 27.1-8.4 15-7.8 24.5-27 20.9-42.6-2-8.9-5.7-15.8-11.7-21.7-6.2-6-12.9-9.4-22-11.2-7.2-1.4-9.9-1-33.5 5.4-2.9.8-8.9 2.4-13.3 3.6-14.7 3.9-47.2 12.7-66.5 18-3.6 1-14.4 3.9-24 6.5l-17.5 4.6-41.5-23.8c-22.8-13.2-55.6-32-72.7-41.9-17.2-9.8-31.3-18.4-31.3-18.9 0-.6 14.1-9.1 31.3-18.9 17.1-9.9 49.9-28.7 72.7-41.8l41.5-23.9 12 3.2c6.6 1.8 14.9 4 18.5 4.9 3.6 1 11 3 16.5 4.5 12 3.2 17.7 4.7 27 7.3 7.2 2 21.5 5.8 34.5 9.3 4.1 1.1 9.9 2.7 12.8 3.5 13.5 3.7 16.1 4.3 21.8 5.4 11.5 2.3 24.5-2.2 33.8-11.4 6.1-6.1 9.7-12.8 11.6-21.5 3.6-15.8-6.1-35.2-21.5-42.8-4.7-2.3-8.7-3.5-34.5-10.3-4.7-1.2-11.4-3-15-4-3.6-1-8.9-2.4-11.8-3.1-2.9-.7-5.1-1.7-4.9-2.3.2-.5 14-8.8 30.8-18.4 16.7-9.6 31.9-18.3 33.7-19.3 4.6-2.7 9.6-5.6 14-8 2-1.2 4.2-2.5 4.7-2.9.6-.4 3.5-2.1 6.5-3.7 12.7-7 15.1-8.6 20-13.6 2.8-2.8 6.5-8.1 8.3-11.7 2.9-6 3.1-7.3 3.1-16.5 0-9.3-.2-10.5-3.3-17-7.1-14.6-20.9-23.5-36.6-23.5-8.2 0-14.3 2-24.8 8-8.3 4.9-12.3 7.2-17.2 10-6.2 3.6-9.8 5.7-19 11-4.9 2.9-10.3 6-12 7-2.5 1.5-27.5 15.9-38 22-1.6.9-4.6 2.7-6.5 3.8-5.8 3.6-6 3.1-3-8.1 3.6-13.4 7.8-28.9 9.6-35.5.8-2.8 2.1-7.7 2.9-10.7 1.8-6.6 2-21.2.4-25.2-5.8-14.3-13.7-22.1-27.1-26.8-6.1-2.1-18.1-1.9-24.4.4-14.5 5.3-23.4 15.9-27.8 33.1-.9 3.6-2.5 9.9-3.7 14-2.1 7.8-8.2 31-12.9 49-1.5 5.8-4.2 15.9-6 22.5-1.8 6.6-4.8 17.8-6.7 25-1.9 7.1-4.1 15.3-4.9 18.2l-1.5 5.1-14.7 8.4c-14.6 8.4-37.2 21.4-98.7 57.1-17.6 10.2-32.4 18.3-32.9 18-.6-.4-.6-34-.2-84.7l.7-84.1 52.3-52.5c28.8-28.9 53.6-54.4 55-56.8 9.4-15.2 6.4-36.5-7-49.2-8-7.6-14.8-10.4-26.2-10.8-16.7-.7-19.5 1.1-49.4 30.7L552 159.4V98c0-64.4-.1-66.1-4.5-75.4-2.8-5.9-10.8-14-17.3-17.4-3.3-1.8-6.7-3.2-7.6-3.2-.9 0-1.6-.5-1.6-1 0-.6-3.8-1-9.5-1s-9.5.4-9.5 1z" fill="currentColor"/></svg>