<svg width="192" height="192" fill="none" xmlns="http://www.w3.org/2000/svg"><path d="M155.925 47.714c.006-.17.009-.342.009-.514 0-8.395-6.737-15.2-15.047-15.2-6.592 0-12.194 4.282-14.229 10.243a10.44 10.44 0 0 0-4.884-1.205c-5.84 0-10.574 4.782-10.574 10.68 0 5.9 4.734 10.682 10.574 10.682h30.5c4.267 0 7.726-3.495 7.726-7.805a7.815 7.815 0 0 0-4.075-6.88Z" fill="#E4E4E4"/><path d="M145.104 139.966c1.987-2.047.068-5.299-2.778-5.079a67.634 67.634 0 0 1-5.233.202c-36.97 0-66.94-29.947-66.94-66.887 0-11.362 2.835-22.062 7.837-31.433 1.346-2.52-.872-5.582-3.546-4.57C49.522 41.628 31.8 65.73 31.8 93.975 31.8 130.44 61.336 160 97.77 160c18.569 0 35.346-7.677 47.334-20.034Z" fill="#6D6D6D"/><path d="M74.656 130.08a20.2 20.2 0 0 0 .01-.671c0-10.94-8.834-19.809-19.733-19.809-8.645 0-15.992 5.581-18.66 13.35a13.762 13.762 0 0 0-6.406-1.571c-7.659 0-13.867 6.232-13.867 13.92s6.208 13.92 13.867 13.92h40c5.596 0 10.133-4.554 10.133-10.172 0-3.88-2.163-7.252-5.344-8.967Z" fill="#E4E4E4"/></svg>