<svg width="192" height="192" fill="none" xmlns="http://www.w3.org/2000/svg"><g clip-path="url(#a)" fill-rule="evenodd" clip-rule="evenodd"><path d="M55 94.733c20.287 0 36.733-16.446 36.733-36.733 0-20.287-16.446-36.733-36.733-36.733-20.287 0-36.733 16.446-36.733 36.733 0 20.287 16.446 36.733 36.733 36.733ZM93 58c0 20.987-17.013 38-38 38S17 78.987 17 58s17.013-38 38-38 38 17.013 38 38Z" fill="#FACD54" fill-opacity=".2"/><path d="M54.789 89.667c17.605 0 31.878-14.273 31.878-31.878 0-17.606-14.273-31.878-31.878-31.878-17.606 0-31.878 14.272-31.878 31.878 0 17.605 14.272 31.878 31.878 31.878Zm33.567-31.878c0 18.538-15.029 33.567-33.567 33.567S21.222 76.327 21.222 57.789 36.251 24.222 54.79 24.222 88.356 39.251 88.356 57.79Z" fill="#F9C433" fill-opacity=".6"/><path d="M54.79 86.289c15.74 0 28.5-12.76 28.5-28.5s-12.76-28.5-28.5-28.5c-15.741 0-28.5 12.76-28.5 28.5s12.759 28.5 28.5 28.5Z" fill="#F8B500"/></g><path d="M155.975 78.507a45.27 45.27 0 0 0 .025-1.522c0-24.853-19.878-45-44.4-45-19.452 0-35.982 12.678-41.986 30.326A30.733 30.733 0 0 0 55.2 58.74C37.969 58.741 24 72.9 24 90.363s13.969 31.622 31.2 31.622h90c12.592 0 22.8-10.346 22.8-23.109 0-8.812-4.867-16.472-12.025-20.37Z" fill="#E4E4E4"/><path fill-rule="evenodd" clip-rule="evenodd" d="M81.256 130.8a4 4 0 0 0-5.04 2.568l-7.043 21.674a4 4 0 1 0 7.609 2.472l7.042-21.674a4 4 0 0 0-2.568-5.04Zm11.065 2.568a4 4 0 1 1 7.609 2.472L86.3 177.787a4 4 0 0 1-7.608-2.473l13.63-41.946Zm16.106 0a4 4 0 0 1 7.609 2.472L105.7 167.65a4 4 0 1 1-7.609-2.472l10.336-31.81Z" fill="#6490E7"/><defs><clipPath id="a"><path fill="#fff" transform="translate(17 20)" d="M0 0h76v76H0z"/></clipPath></defs></svg>