<svg version="1.0" xmlns="http://www.w3.org/2000/svg" width="1365.333" height="1365.333" viewBox="0 0 1024 1024"><path d="M478.5 12.6c-71.9 5.3-135.8 22.7-198 54.1C149.5 132.8 52.8 253.4 16 396.5 6.1 435.1 0 482.7 0 520.1c0 18.2 1.5 48.4 3 59.4.5 3.8 1.4 11.5 2 17 .7 5.5 3 19 5.2 30 29 145.9 119.2 271.4 248.5 345.6 9.5 5.4 21.6 12 27 14.5 5.4 2.5 14.4 6.8 20.1 9.5 5.7 2.7 10.6 4.9 11 4.9.6 0 4.7 1.6 27.2 10.3 4.2 1.7 7.7 2.2 14.6 2.2 8.3 0 9.4-.2 13.9-3 6.2-3.8 10.6-10 11.6-16.2.9-5.6.9-58.2 0-79.3-.6-13.7-.7-14.5-2.6-14.2-2.9.4-12.2 2-18.5 3.1-3 .6-14 1.4-24.3 1.7-22.1.8-29.1 0-51.9-5.7-9.5-2.3-25.1-9.8-34.8-16.7-15.2-10.7-29.8-28-37-43.7-1.6-3.6-3-6.7-3-7 0-1.1-11.4-24.4-15.1-30.7-9.5-16.3-24.7-33.6-36.9-41.8-15.8-10.6-25-19.6-25-24.5 0-3 4.7-7.1 9.9-8.5 18.7-4.9 46.8 4.5 67.4 22.7 8.8 7.8 16.5 17.2 26.2 31.8 13.9 21.1 26.5 33.5 42.9 42.4 16.5 8.9 42.2 13.2 60.2 10.1 13.3-2.4 17.2-3.2 23.9-5.2 3.9-1.1 8.1-2.5 9.5-3 3.7-1.6 6.3-2.6 8.3-3.2 2-.6 3.4-3.8 4.9-11.1.5-2.8 1.4-6.8 1.8-9.1 2.7-12.8 14.3-35 23.1-44 5.8-5.8 5.4-6.8-2.6-7.8-2.7-.4-7.5-1.1-10.5-1.6s-8.9-1.4-13-2c-7.6-1.1-12.8-2.1-22.3-4.2-6.2-1.3-31.8-8.5-35-9.7-1.2-.5-6-2.4-10.7-4.2-40.5-15.7-74.1-42.2-95.4-75.3-18.5-28.7-30.2-63.5-35.6-105.6-2.8-21.5-3.4-64.7-1.1-79.5 5.8-38.8 21.6-74.2 45.2-101.6 2.7-3.1 4.9-6.2 4.9-6.9 0-.7-1.1-4.9-2.5-9.4-4-13.3-5.5-22.1-6.4-38.5-1.5-25.6 2.1-50.7 10.7-76.1l3.9-11.5 5.4-.9c7.1-1.2 22.2.7 36.4 4.4 22.9 6.1 51.8 19.7 81.4 38.2l17.4 10.9 17.1-4c38.9-9.2 68.2-12.5 111.1-12.5 43 0 72.2 3.3 111.2 12.5l17.1 4 17.9-11.1c42.9-27 81.4-41.9 109.3-42.4 13.7-.2 12.9-.9 18.3 16.1 8.4 26.6 11.4 49 9.7 73.4-1 15.2-3.5 29.5-6.9 39.3-1.2 3.3-2.1 6.5-2.1 7.3 0 .8 2.7 4.7 6.1 8.6 22.5 26.8 37.7 60.4 43.6 97.3 2.7 16.6 2.4 59.9-.6 82.9-9.1 69.8-35 118.9-80.6 153.1-12.9 9.6-32.5 20.4-48 26.5-22.8 8.8-49 15.7-71.5 18.9-4.7.6-11 1.6-14 2-3 .5-7.6 1.2-10.2 1.5-2.6.3-5 1.1-5.4 1.7-.3.5 1.6 3.3 4.3 6.1 11.9 12.3 20.5 30 25.2 52 3.9 18.4 4.3 29.6 4 108.2-.4 80.8-.5 79.2 4.8 86.2 1.3 1.8 4.5 4.5 7.1 6 4.2 2.5 5.7 2.8 13.7 2.8 7.8 0 10.1-.4 17-3.2 4.4-1.7 13.2-5.2 19.5-7.6 6.3-2.5 16-6.6 21.5-9.2 5.5-2.6 13.2-6.2 17.2-8.1 4-1.8 15-7.8 24.5-13.3 80.6-46.3 145.9-111.9 192-193 5.5-9.6 12.6-23.2 15.8-30.1 3.2-6.9 7.1-15.4 8.8-19 8-17.2 25.3-69.8 28.5-86.5.4-1.7 2.2-10.7 4.1-20 1.9-9.4 3.9-21.5 4.6-27 .6-5.5 1.6-13.1 2.1-16.8.5-3.8 1.2-13.2 1.6-20.8.3-7.7 1-14.2 1.5-14.5 1.1-.7 1-46.1-.1-46.8-.5-.3-1.2-5.6-1.6-11.8-.3-6.2-1.3-16.7-2.1-23.3-16.6-134.5-84.1-255.4-189.9-340.1-51.6-41.3-113-72.8-178-91.2-29.2-8.3-49.8-12.3-86.5-16.8-11.8-1.5-73.7-2.7-86.5-1.8z" fill="currentColor"/></svg>