<svg version="1.0" xmlns="http://www.w3.org/2000/svg" width="1365.333" height="1365.333" viewBox="0 0 1024 1024"><g fill="currentColor"><path d="M503 1c0 .5-.6 1-1.4 1-2.8 0-9.9 4.6-13.2 8.4-1.9 2.2-4.4 6-5.6 8.5-2.2 4.5-2.3 5.7-2.8 42.1l-.5 37.4-2.5.7c-1.4.4-4.7.7-7.4.8-4.8.1-7.4.5-26.6 3.7-5.2.9-10.8 1.8-12.5 2.1-5 .7-23.6 5.2-30.5 7.3-1.4.4-4.5 1.3-7 2-6.5 1.9-22.1 6.9-25 8.2-1.4.6-3.6 1.5-5 2.1-1.4.5-3.3 1.3-4.2 1.8-1 .5-2.2.9-2.8.9-.5 0-3.3 1.1-6.2 2.4-2.9 1.3-7.5 3.4-10.3 4.6-23.8 10.6-47.5 24.4-72.5 42.2-30.3 21.6-68.4 59.9-92.6 93.3-6.6 9.1-15.4 22.2-15.4 23 0 .4-1.3 2.5-2.8 4.8-4.9 7.2-19 33.9-23.6 44.7-1 2.5-2.7 6.3-3.6 8.5-7.5 17-17.2 47.2-21.9 67.5-1.1 4.7-2.5 11.4-3.1 15-.6 3.6-1.5 8.5-2 11-1.1 5.7-2.8 19.4-3.6 28.2-.3 3.7-.9 7-1.3 7.3-.5.2-17.4.6-37.7.7l-36.9.3-5 2.5c-6 3-12.6 9.3-15.1 14.6-2.6 5.4-2.7 22.3-.1 27.6 2.5 5.2 9.4 11.9 15.2 14.8l5 2.5 36.9.3c20.3.1 37.2.5 37.7.7.4.3 1 3.6 1.3 7.3.8 8.8 2.5 22.5 3.6 28.2.5 2.5 1.4 7.4 2 11 1.2 6.7 6.5 29.1 8.1 34.5 12.9 42.2 25.7 71.2 46.9 106 5 8.2 12.1 18.8 13 19.5.3.3 2.2 2.7 4 5.5 12.8 19 48.3 57 69 73.9 5.2 4.3 10.4 8.5 11.5 9.4 4.2 3.4 31.1 22.4 32.5 23 .8.3 3.4 1.8 5.7 3.4 2.3 1.5 4.4 2.8 4.6 2.8.3 0 3.4 1.8 7 4 10.4 6.3 47.4 24 50.1 24 .8 0 1.7.4 2 .9.3.5 1.6 1.1 2.8 1.4 1.3.3 7.5 2.4 13.8 4.7 6.3 2.3 12.9 4.6 14.5 5 20 5.7 33.9 9 50.5 11.9 20 3.4 24.6 4.1 29.6 4.2 2.7.1 6 .4 7.4.8l2.5.7.5 37.9.5 38 2.8 5.2c3.4 6.3 9.3 11.8 15.5 14.5 3.7 1.7 6.1 2 14.1 1.6 8.8-.3 10-.6 14.1-3.5 6.2-4.3 9.4-7.9 12.4-13.9l2.6-5.2v-37c0-25.1.3-37.3 1.1-37.7.5-.4 5.2-1.1 10.2-1.6 5.1-.5 12.4-1.3 16.2-1.8 6.3-1 9.7-1.5 21.5-3.6 3.9-.7 10.7-2.2 16-3.5 1.9-.5 5.8-1.4 8.5-2.1 15.6-3.7 45.6-14.1 63.5-22.1 10.3-4.5 31.1-15.2 39-19.9 4.7-2.8 10-6 11.8-7 8.6-5 35.7-24 38.2-26.8.3-.3 2.5-2.2 5-4.1 20.5-15.8 51.8-48.3 69.3-72 2.6-3.6 5.4-7.3 6.2-8.2 2.3-2.8 15.5-22.7 15.5-23.4 0-.3.8-1.8 1.9-3.2 7.3-10.3 23.7-43.4 31.2-63 .5-1.2 1.3-3.2 1.9-4.5 4.1-9.8 13.6-41.7 16.9-57.2 3.2-15.2 3.8-18.3 5.1-27 .6-4.4 1.5-10.7 2.1-14.1.5-3.3.9-8.4.9-11.3 0-3.2.5-5.3 1.3-5.6.6-.3 17.9-.6 38.2-.7 36.8-.3 37-.3 41.5-2.7 2.4-1.3 5.7-3.3 7.3-4.5 3.3-2.4 9.7-11.7 9.7-14 0-.9.5-1.6 1-1.6.6 0 1-3.5 1-8.5s-.4-8.5-1-8.5c-.5 0-1-.7-1-1.6 0-2.8-7.2-12.4-11.4-15.2-8.4-5.6-8.3-5.6-47.6-5.9-20.1-.2-37.1-.5-37.7-.8-.8-.3-1.3-2.4-1.3-5.6 0-2.9-.4-8-.9-11.3-.6-3.4-1.5-9.7-2.1-14.1-3.9-27.3-16.6-73.9-24.1-88.7-.5-1-.9-2.2-.9-2.8 0-.5-1.1-3.4-2.5-6.5-1.4-3-3.6-8-5-11-7.3-16.1-17.6-35.6-22.6-42.7-1.1-1.4-1.9-2.9-1.9-3.2 0-.8-14-21.9-15-22.6-.4-.3-2.5-3.2-4.7-6.5-2.3-3.3-4.9-6.9-6-8-1-1.2-3.4-4.1-5.3-6.5-9.7-12.5-30.8-34.6-46-48-4.6-4.1-9.1-8.1-9.8-8.8-.8-.7-3-2.5-5-4-2.1-1.5-3.9-2.9-4.2-3.3-2.6-3-27.1-20.1-41.5-28.9-12.6-7.7-35.8-19.8-48.7-25.4-11.4-4.9-13.3-5.6-19.8-8.1-6-2.3-27.7-9.5-31.5-10.5-9.6-2.6-22.8-5.8-28-6.9-3.3-.7-7.8-1.6-10-2.1s-7.4-1.4-11.5-2c-4.1-.6-9.9-1.5-12.9-2.1-3-.5-7.9-.9-11-1-3.1-.1-6.7-.4-8.1-.8l-2.5-.7-.5-37.9c-.5-37.9-.5-38-3-42.8-3-6-9.3-11.9-16.1-15.2-4.2-2-6.8-2.5-12.6-2.5-4.2 0-7.3.4-7.3 1zm37 160c26.7 2.3 43 5.3 71 13.2 21.8 6.1 55 20.2 74.5 31.6 1.7 1 5.3 3.1 8 4.7 13.3 7.8 28.5 18.6 44.5 31.9 18.5 15.3 46.9 45.7 58 62.1 1.9 2.7 4.6 6.6 6.1 8.5 4.5 5.7 16.8 26.6 23.3 39.5 12.6 24.9 19.2 42 26.7 69 3.8 13.6 7.4 33.1 10.1 54 1.6 13.1 1.6 61.9 0 74-2.4 17.2-3.4 23-4.9 30.5-.8 4.1-1.8 8.6-2 10-3.2 16-13.3 46.8-21.5 65-20.7 46.4-53.5 90.9-90.8 123-4.1 3.6-8 6.9-8.6 7.5-1.2 1-10.4 8-19.9 15.1-5.5 4.1-16.5 11.1-29 18.3-12 7-41.2 21.1-43.5 21.1-.6 0-1.8.4-2.8.9-4.7 2.4-16.7 6.5-31.7 10.9-15.9 4.6-34.7 8.4-56.5 11.4-12.8 1.8-68.4 1.7-80 0-24-3.6-26.9-4.2-44.7-8.3-2.7-.6-5.9-1.4-7.3-1.9-1.4-.4-4.5-1.3-7-2-11.3-3.2-23.9-7.6-31.7-11.1-2.4-1-4.7-1.9-5.1-1.9-.5 0-2.2-.6-3.8-1.4-17.2-8.3-28.8-14.2-32.9-16.6-2.7-1.7-5.7-3.3-6.5-3.7-.8-.4-4.7-2.7-8.5-5.2-3.9-2.5-7.8-5.1-8.7-5.6-30.1-18.9-67.1-55.1-92.4-90.5-20.1-27.9-40.6-70.5-49.4-102-.7-2.5-1.6-5.6-2.1-7-2.7-8.3-7.7-34.1-9.8-50-4.8-38-3.1-79.1 5.1-117 2.1-9.8 3.4-15.1 7.8-30.5 8-28.5 29.2-71.7 48.4-98.5 25.3-35.4 62.3-71.6 92.4-90.5.9-.6 4.9-3.1 8.9-5.8 4-2.6 7.4-4.7 7.7-4.7.2 0 3.3-1.7 6.7-3.8 7.8-4.7 35.4-18.2 37.1-18.2.5 0 2.7-.9 5.1-1.9 12.5-5.6 34.5-12.6 50.2-16 23-5 40.2-7.6 55-8.5 12.8-.7 44.1-.5 54.5.4z"/><path d="M482 309.6c-43.5 6.3-83.7 26.5-115.2 57.9-49.3 49.1-70.1 117.9-56.3 186.1 15.2 75.2 72.9 136.5 147.7 156.8 30.2 8.3 68.7 8.9 99.7 1.6 75.5-17.8 134.5-76.5 152.5-152 8.9-37 7.1-76.6-5-113-4.4-13.3-15.5-35.8-23.3-47.5-22.1-33.1-53.4-59.4-89.1-74.8-18.6-8-32.7-12-53.9-15.2-12.6-1.9-43.8-1.8-57.1.1z"/></g></svg>