<svg version="1.0" xmlns="http://www.w3.org/2000/svg" width="1365.333" height="1365.333" viewBox="0 0 1024 1024"><g fill="currentColor"><path d="M498 3.1C488.6 8.2 488 9 469 39c-4 6.3-10 15.7-13.4 20.9-3.3 5.2-6.5 10.2-7.1 11.1-.5 1-3.5 5.2-6.5 9.5-7.3 10.3-17.2 24.4-23.9 34.1-3 4.4-9.6 13.3-14.6 19.9-5 6.6-15.4 20.3-23.1 30.5-7.6 10.2-14.1 18.7-14.5 19-.3.3-3 3.7-6 7.6-8.2 10.6-13.7 17.8-20.9 26.8-3.6 4.6-7.6 9.8-9 11.6-1.4 1.8-4.5 5.9-7 9-2.5 3.1-5.6 7.2-7 9-2.9 3.9-11.4 14.6-13.7 17.5-4.7 5.6-48.2 63.9-53.6 71.7-3.4 5-9.2 13.4-13 18.7-11.8 16.8-20.7 30-20.7 30.6 0 .3-1.7 3.2-3.9 6.3-4.4 6.7-12.1 19.2-12.1 19.9 0 .3-.8 1.7-1.9 3.1-1 1.5-2.9 4.5-4.1 6.7-12 21.2-15.7 28.4-24.5 47-5.4 11.6-6.5 14-8.4 18.7-.5 1.3-1.6 3.9-2.4 5.8-2.9 6.6-5.9 14.5-8.3 22-1.4 4.1-2.9 8.4-3.4 9.5-1.4 3.3-2.1 5.7-4.2 13.5-1.1 4.1-2.4 9.1-2.9 11-1.3 4.6-2.6 10.2-4 17l-2 10c-.9 4.3-2 11.6-4 26.5-2.7 20-2.1 64.8 1.1 84.5.5 3 1.4 8.9 2 13 1.3 8.2 3.6 20.5 5 26 .5 1.9 1.3 5.3 1.9 7.5 2.6 11 5.1 19.6 7.1 25 1.2 3.3 2.4 6.9 2.7 8 .3 1.1.9 2.4 1.3 3 .3.5 1.2 3 2 5.5.7 2.5 1.7 4.9 2.2 5.4.4.6.8 1.6.8 2.3 0 1.5 4 10.3 12.3 27.3 6.4 13.1 8.1 16.2 16.7 30 2.9 4.7 6.2 10.1 7.2 12 1.1 1.9 2.3 3.7 2.7 4 .4.3 1.8 2.1 3.1 4 1.4 1.9 3 4.2 3.7 5 .6.8 4.2 5.6 8 10.6 11.4 15.4 29 34.1 48 51.2 19.3 17.4 55.8 42.5 76.8 53 21.1 10.4 30.5 14.6 46 20.2 3 1.1 7.9 2.9 10.8 4 2.8 1.1 9.6 3.1 15 4.5 5.3 1.4 13.9 3.6 19 4.9 5 1.3 15.5 3.4 23.2 4.5 7.7 1.2 16.9 2.7 20.5 3.4 4.4.8 18.3 1.2 43 1.2 38.8 0 36.7.1 73-6 19-3.2 44.7-10.8 73.5-21.7 15.1-5.7 51.5-25.3 68.7-37 23.9-16.1 52.7-41 68.2-58.8 2.2-2.5 6.2-7 9-10.1 5.6-6.1 7-7.8 10.6-12.9 1.3-1.9 2.7-3.7 3-4 .3-.3 1.7-2.1 3-4s2.7-3.7 3-4c.3-.3 1.7-2.1 3-4s2.7-3.7 3.1-4c.4-.3 1.6-2.1 2.7-4 1-1.9 4.3-7.3 7.2-12 8.2-13.2 9.5-15.6 16.4-29.5 8.4-17 12.6-26.2 12.6-27.8 0-.7.4-1.7.8-2.3.5-.5 1.5-2.9 2.2-5.4.8-2.5 1.7-5 2-5.5.4-.6 1-1.9 1.3-3 .3-1.1 1.5-4.7 2.7-8 2.3-6.2 4.4-13.9 8.9-32 1.5-6.3 3.9-18.3 5.1-26.5.6-4.1 1.5-10 2-13 3.2-19.8 3.8-64.5 1.1-85-2-15-3-21.6-4.1-26.8-.5-2.8-1.4-7.3-1.9-10-1.1-5.3-2.4-10.8-4.1-16.7-.6-2.2-1.5-5.6-2-7.5-.5-1.9-1.4-5.3-2-7.5-.6-2.2-1.4-5-1.7-6.3-.3-1.2-.9-2.5-1.4-2.8-.5-.3-.9-1.4-.9-2.5 0-1-.4-2.7-1-3.7-.5-.9-1.9-4.6-3-8.2-1.2-3.6-3-8.4-4.1-10.7-1-2.4-1.9-4.5-1.9-4.8 0-.3-.9-2.7-2.1-5.3-1.2-2.6-2.5-5.6-2.9-6.7-3.8-9.5-19.9-41.6-26.8-53.8-1.2-2-3.1-5.3-4.2-7.2-5-8.7-5.9-10.3-9-15.5-1.8-3-4.5-7.3-6.1-9.7-1.6-2.3-2.9-4.4-2.9-4.8 0-.6-17.9-27.7-18.9-28.5-.3-.3-1-1.2-1.6-2.1-.5-.9-4.3-6.3-8.2-12-4-5.7-9.3-13.3-11.8-16.9-2.5-3.6-5.1-7.2-5.8-8-.7-.8-2.3-3.1-3.7-5-1.3-1.9-2.7-3.7-3-4-.3-.3-1.7-2.1-3-4s-2.7-3.7-3-4c-.3-.3-1.7-2.1-3-4s-2.7-3.7-3-4c-.3-.3-1.7-2.1-3-4s-2.7-3.7-3-4c-.3-.3-5.1-6.6-10.8-14-14.6-19.3-19.1-25.2-21.5-28-1.2-1.4-5-6.2-8.3-10.6-3.4-4.5-6.9-9-7.7-10-2.4-2.9-10.9-13.6-13.7-17.4-1.4-1.8-5.5-7.2-9.3-11.9-3.7-4.7-8.8-11.2-11.3-14.4-7.7-9.8-49.7-65.8-54.4-72.6-2.5-3.5-7.5-10.7-11.3-16C581.2 80.7 550 33.5 550 32.5c0-1.3-14-21.2-16.6-23.7-1.6-1.5-5.5-4-8.8-5.7-5.1-2.7-6.8-3.1-13.5-3-6.4.1-8.4.5-13.1 3zm26.3 109.7c6.5 9.7 14.3 21.1 17.3 25.2 3 4.1 7.3 10.2 9.6 13.5 2.3 3.3 6.3 8.7 8.8 12 2.5 3.3 6.1 8.2 8 11 1.9 2.7 5.3 7.5 7.7 10.5 5.9 7.3 6.1 7.6 11.3 14.5 2.5 3.3 7.2 9.4 10.5 13.6 3.3 4.2 8.5 10.9 11.5 14.9s6 7.7 6.5 8.4c.6.6 4.3 5.4 8.2 10.6 4 5.2 10.4 13.5 14.3 18.5 3.9 4.9 10.2 13 14 18 3.8 4.9 10.1 13 14 18 5.8 7.4 17.8 23.3 48.3 63.9 1.2 1.5 4.4 6.1 7.2 10.1 2.7 4 8.4 12.1 12.5 18 9.4 13.5 8.6 12.4 15 22.5 2.9 4.7 6.9 11 8.8 14 6.6 10.2 13.5 21.5 16.5 27 1.7 3 4.1 7.3 5.3 9.5 2.4 4.1 18.9 37.3 20.4 41 .4 1.1 1.5 3.7 2.4 5.7.9 2.1 2.2 5.3 3 7 .7 1.8 1.9 4.9 2.6 6.8.7 1.9 1.6 4.4 2 5.5.4 1.1 1.3 3.6 2 5.5s1.6 4.4 2 5.5c.4 1.1 1.3 4 2 6.5s1.6 5.6 2 7c.4 1.4 1.3 4.5 2 7s1.6 5.6 2 7c.5 1.4 1.1 4.1 1.4 6 .3 1.9 1.1 5.5 1.6 8 1.6 7 2.8 16 4.6 35 1.5 15.2 1.5 20.1.5 37-.7 10.7-1.6 21.7-2.1 24.5-.5 2.7-1.4 8.4-2 12.5-2.1 14.4-8.1 37.9-13 51-1.7 4.7-3.8 10.5-4.7 13-.8 2.5-3.8 9.2-6.5 15-2.8 5.8-6 12.5-7.1 15-1.2 2.5-4.3 8.1-7.1 12.5-2.7 4.4-6.2 10.2-7.9 13-4.3 7.2-22.2 31-28.6 38-22 24.1-46.6 44.8-71.8 60.6-12.5 7.9-40.5 22.2-49.4 25.2-2.4.9-8.2 3-12.9 4.7-25.9 9.7-62.8 16.6-94 17.6-28.9.9-62.6-2.3-84.5-8.1-3.3-.9-9.6-2.5-14-3.6-4.4-1.2-13.9-4.3-21.1-7-7.2-2.7-13.3-4.9-13.7-4.9-1.7 0-31.9-15.5-42.6-21.9-14.1-8.4-37.8-25.8-46.3-33.9-3.1-3-6.6-6.1-7.7-6.8-4.6-3.2-27.2-28.8-36.7-41.4-9.6-12.7-21.9-31.9-27-42-5.6-11.1-13.3-27.9-14.7-32-.9-2.5-3-8.3-4.7-13-2.9-7.6-5.6-17.1-8-27-.4-1.9-1.5-6-2.3-9-.8-3-2-9.6-2.6-14.5-.7-5-1.6-11-2.1-13.5s-1.4-12.9-2.1-23.2c-1.8-26.5 0-48.9 6.1-77.3.4-2.2 1.3-6.5 2-9.5.6-3 1.5-6.6 2-8 .5-1.4 1.8-5.9 3-10s3.1-9.9 4.1-12.8c4.4-12.2 6.2-16.9 8-20.9 1.1-2.4 1.9-4.5 1.9-4.8 0-1.6 18.4-39.3 24.3-50 6.5-11.5 7.9-14 9.8-16.7 1.1-1.4 1.9-2.9 1.9-3.2 0-.4 2.3-4 5-8.1 2.8-4.1 5-7.7 5-8 0-.3 2.3-3.9 5-8 2.8-4.1 5-7.7 5-8 0-.6 6.3-9.9 16-23.5 3.4-4.7 8.4-11.9 11.2-16 2.8-4.1 7.7-10.9 10.8-15 18.7-24.9 40.9-54.2 44.4-58.6 2.3-2.8 5.2-6.6 6.6-8.4 2.3-3 10.3-13.3 13.3-17 .7-.8 4.1-5.3 7.7-10 3.6-4.7 7-9 7.5-9.6.6-.7 3.5-4.4 6.5-8.4s8.2-10.7 11.5-14.9c3.3-4.2 8-10.3 10.5-13.6 2.5-3.3 4.7-6.2 5-6.5.6-.5 13.8-17.7 23.1-30 8.1-10.8 19.5-26.5 25.9-35.5 3-4.3 7.5-10.5 10-13.9 2.5-3.5 9-13.1 14.5-21.4 5.5-8.3 10.5-15.2 11-15.2.6 0 6.3 8 12.8 17.8z"/><path d="M401.5 385.5c-13 2.1-21.1 4.8-30.6 9.9-16.9 9.2-30.6 22.6-39 38.1-1.7 3.3-3.5 6.4-3.9 7-.7.9-3.8 9.8-5.9 17-.5 1.6-1.5 7.7-2.2 13.5-1 8.8-.9 12.2.4 21 3 20.7 9 34.6 21.3 49.6 11.5 14 28.7 25.6 45 30.5 12.7 3.8 26.5 5.2 38.4 3.9 10.6-1.3 25.6-5.4 32-8.9 10.5-5.7 13.1-7.4 19.6-12.7 7.6-6.2 17.1-17.2 21.1-24.3 8.4-15 10.8-22.1 13-38.5 1.3-9.7 1.3-12.2 0-22-2.2-16.5-4.6-23.7-13-38.7-6.2-11-21.8-26.6-32.7-32.6-2.5-1.4-5.9-3.3-7.6-4.3-6.2-3.6-19.5-7.5-30.7-9-9.5-1.2-14.8-1.1-25.2.5zm25.2 65.7c11.7 4.3 20.3 16.8 20.3 29.3 0 16.9-14.6 31.5-31.5 31.5-12.5 0-25-8.6-29.3-20.3-9.5-25.3 15.2-50 40.5-40.5zm234.1-1.2c-2.5.9-5.9 2.7-7.5 3.8-1.5 1.1-76.2 75.6-165.9 165.4C380.8 725.9 323.7 783.7 322.7 786c-4.1 9.6-4.7 15.3-2.2 23.4 3.4 11.3 10.8 18.4 23.4 22.5 6.5 2.1 13 1.3 22.1-2.6 2.3-1 60.1-58.1 166.8-164.7 89.8-89.7 164.2-164.4 165.4-165.9 1.1-1.5 2.9-5.1 3.9-8 9-24.5-16.9-50-41.3-40.7zm-66.3 255.5c-59.1 8.5-96.5 68.1-78.2 124.6 5.3 16.3 16.7 33 30.5 44.3 40.7 33.4 99.3 28.1 134-12.2 16.9-19.6 25.4-48.2 21.9-73.2-2.3-16.2-4.7-23.3-13-38.1-6.2-11-21.8-26.6-32.7-32.6-2.5-1.4-5.9-3.3-7.5-4.2-5.3-3.1-22.6-7.9-32.1-9-10.5-1.3-11.1-1.3-22.9.4zm24.2 65.7c7.7 2.9 15.2 10.4 18.1 18.1 9.9 26.3-17.3 51.7-42.3 39.7-20.2-9.6-24.7-34.9-9.1-50.6 9.1-9 21.4-11.7 33.3-7.2z"/></g></svg>