<svg version="1.0" xmlns="http://www.w3.org/2000/svg" width="1365.333" height="1365.333" viewBox="0 0 1024 1024"><path d="M379.8.6c-.3.3-10.4 3.8-22.4 7.8-12.1 4.1-24.4 8.5-27.4 9.9-3 1.4-8.3 3.7-11.8 5.1-12 4.8-14.8 6.1-29.2 13.4-18 9.2-28.7 15-32 17.2-1.4 1-5.6 3.7-9.5 6-3.8 2.4-9.9 6.1-13.5 8.3-5.5 3.4-21.1 14.6-37.6 27.1-2.2 1.7-7 5.6-10.5 8.7-3.5 3.1-10.4 9.1-15.3 13.4-11.9 10.3-37.8 37.2-50.1 52-5.5 6.6-11 13.1-12.2 14.6-1.3 1.4-4.8 6.1-7.8 10.5-3.1 4.3-8.4 11.9-11.8 16.7-5.6 8-13.7 20.5-13.7 21.2 0 .1-3.2 5.5-7.1 12-7.7 12.8-24.7 47.2-29.6 60-1.7 4.4-5.1 13.2-7.6 19.5-3.8 9.8-6.5 18.1-11.7 36.5-5.9 20.7-12.9 54.8-15 73-.6 5.5-1.6 13.1-2.3 17C.9 455.1.5 472.7.5 502c0 40.7.2 46 2.3 62 3.9 30 8.6 53.2 16.3 81 .6 1.9 1.4 4.8 1.8 6.5 1.3 4.5 10 30.7 11.3 33.5.5 1.4 1.4 3.3 1.9 4.2.5 1 .9 2.2.9 2.7 0 3.7 23.8 53.9 32.6 68.6C82 784.8 97.4 808 107.2 820c1.5 1.9 4.9 6.2 7.6 9.6 19.7 25.1 53.9 59.4 79.3 79.4 18.9 14.9 45.5 34 47.4 34 .4 0 2.7 1.4 5.1 3.1 15 10.3 58.9 32.7 79.4 40.6 9.7 3.7 10.3 3.9 13 5.1 2.8 1.2 30.2 10.2 36.5 12 19.5 5.5 36.8 9.6 51.5 12.2 3.6.6 8.5 1.5 11 2s8.3 1.3 13 1.9c4.7.6 12.6 1.6 17.5 2.3 6.2.9 22.2 1.3 52 1.3 39 0 44.7-.2 61.5-2.3 29.5-3.8 60.3-10 86.5-17.7 19.8-5.7 21.2-6.2 36-12 6.6-2.6 14.7-5.7 18-7 7.4-2.9 44.4-20.8 49.4-23.9 2-1.3 9.2-5.7 16.1-9.7 6.9-4.1 13.2-7.8 14.1-8.4 1.6-.9 7.7-5.2 27.4-19 11.8-8.3 37.2-30.1 53.6-45.9 14-13.6 37-38.8 45.4-49.9 18.1-23.7 35.1-49 45.6-67.4 4.9-8.6 21.8-42.5 23.9-47.8 1.3-3.3 3.6-8.8 5.2-12.3 1.5-3.4 2.8-6.5 2.8-6.7 0-.3.9-2.4 1.9-4.8 2.6-5.5 14.1-40.1 14.1-42.1 0-.9.5-1.6 1-1.6 1.3 0 1.3-16.4.1-18.8-.5-.9-2.1-4.2-3.5-7.2-3.1-6.7-10.2-13.8-17.6-17.7-4.6-2.4-6.9-2.9-14.8-3.1-10.5-.4-14.1.6-28.7 8.5-14.7 7.9-42.7 21.3-44.5 21.3-.6 0-1.8.4-2.8.9-7 3.8-36.2 13.2-52.7 17.1-4.9 1.1-10.6 2.5-12.5 3-1.9.4-6.6 1.3-10.5 2-3.8.6-9.5 1.5-12.5 2-17.8 2.9-27.4 3.5-57 3.5-20.4 0-34.8-.5-41-1.3-22.9-3.2-29.2-4.3-44-7.8-5.8-1.4-12.1-2.9-14-3.4-11.8-2.8-22-5.8-29-8.5-2.5-.9-7-2.6-10-3.7s-6.4-2.4-7.5-2.8c-1.1-.4-3.6-1.4-5.5-2.1-4.4-1.5-39.9-18.9-46-22.5-2.5-1.5-6.4-3.9-8.7-5.5-2.3-1.6-4.4-2.9-4.8-2.9-.4 0-2.6-1.3-5-3s-4.6-3-4.9-3c-.3 0-8-5.6-17.1-12.5-22.7-17-41.4-34.2-61.3-56.2-7.3-8.1-33.2-41.6-33.2-42.9 0-.3-1.3-2.5-3-4.9-1.6-2.4-3-4.6-3-5 0-.3-1.8-3.3-4-6.5s-4-6.2-4-6.5c0-.4-1.3-2.6-3-5-1.6-2.4-3-4.6-3-5 0-.3-3.5-7.9-7.8-16.8-4.4-8.9-8.5-17.8-9.1-19.7-.7-1.9-1.7-4.4-2.1-5.5-.4-1.1-1.7-4.5-2.8-7.5-1.1-3-2.8-7.5-3.7-10-2-5.4-3.8-10.9-5.4-17-.7-2.5-1.6-5.9-2.1-7.5-3.7-13.1-8.2-34.2-9.9-46-.5-3.9-1.6-10.8-2.3-15.5-1.7-11.7-1.7-68.9 0-83.5 2.4-20.2 5.6-37.7 10.3-56 4.2-16 12.4-40.6 16-47.7.5-1 .9-2.2.9-2.8 0-1.4 6.8-16 14.2-30.5 16-31.3 15.6-30.3 16.1-37.9.8-11.6-2.5-20.8-10.5-29.2-4.9-5.2-13.4-10.4-17-10.4-1 0-1.8-.5-1.8-1 0-1-16.2-1.5-17.2-.4zM313 112.1c0 .5-1.6 6.5-3.6 13.2-5 17-5.3 18.1-7.4 27.7-3.9 18.2-6.9 34.9-8 44.5-.6 5.5-1.6 13.1-2.2 17-1.9 12-1.5 74.6.5 91 2 16.4 3.2 24.7 4.7 33 .5 3.3 1.3 7.6 1.6 9.5.5 3.1 1.3 6.9 5.6 25 .9 4.1 1.7 6.8 3.8 14 .4 1.4 1.3 4.5 2 7 1.7 6.2 4.9 16.1 6 18.5.5 1.1 1.6 4 2.4 6.5 1.6 5.1 6.9 18.4 9.7 24.7 1 2.4 2.8 6.4 4 9 4.1 9.5 13.4 28 18.2 36.3 2.7 4.7 5.8 9.9 6.8 11.7 8 14.1 32.9 49.7 40.2 57.5.6.7 3.7 4.3 6.7 7.8 14.7 17.5 36.8 39.5 54 54 3.6 3 6.7 5.7 7 6 1.8 1.8 19.6 15.3 25 19 3.6 2.4 6.7 4.7 7 5.1.5.7 20.4 13.4 26.5 16.9 1.7 1 6.8 4 11.5 6.7 8.4 4.8 26.8 14.1 36.5 18.3 2.8 1.2 7.3 3.2 10 4.4 2.8 1.3 7.7 3.3 11 4.5 3.3 1.3 6.9 2.7 8 3.1 1.1.5 6.3 2.3 11.5 4 5.2 1.7 10.4 3.5 11.5 4 1.1.4 3.1 1.1 4.5 1.5 1.4.3 4 1.1 5.8 1.6 13.7 3.9 16.6 4.7 22.7 6 2.8.6 6.8 1.5 9 2 8 1.8 24.1 4.8 32.5 5.9 26.8 3.8 35.2 4.3 69 4.3 19.7 0 37.5-.5 41.5-1.1 3.9-.6 11.5-1.6 17-2.3 5.5-.6 13.6-1.7 18-2.5 7-1.2 12.3-2.3 31.5-6.4 2.5-.5 9.2-2.3 15-4 5.8-1.8 11.9-3.5 13.5-4 1.7-.5 4.5-1.3 6.2-1.8 1.8-.6 3.5-.7 3.7-.4.5 1-12.6 23.6-21.4 36.7-7 10.6-24.9 34.9-28.7 39-1 1.1-6.6 7.4-12.5 14-14.7 16.6-31.5 32.6-49.3 47.1-15.1 12.3-42.1 31.1-54.7 38.3-4 2.2-8.4 4.7-14.5 8.3-9.5 5.4-29.9 15.1-41.8 19.8-4.4 1.7-9.3 3.7-11 4.5-15.7 6.8-55.2 18.3-74 21.5-3 .6-8.1 1.5-11.2 2-9.5 1.7-26.9 3.8-41.9 5.1-15.4 1.3-58.5.7-73.9-1-17.3-1.9-40.1-5.4-49-7.5-29.2-6.9-50.1-13.1-66-19.6-1.1-.4-4.9-1.9-8.5-3.3-17.6-6.8-41.9-19-64.7-32.5-6.7-4-33.5-22.3-37.3-25.5-.8-.7-3.5-2.8-6-4.7-13.9-10.8-23.1-19-40.5-36.5-14.1-14-17.7-17.9-27-29-11.9-14.2-33.1-43.8-39.5-55-1.1-1.9-3-5.2-4.2-7.3-15.1-26.3-27.9-54.4-36.3-79.7-22.4-67.4-28.6-131-19.6-202.5.5-4.1 1.5-10.1 2-13.3.6-3.1 1.5-8.1 2-11.1 3.1-17.6 16.2-62.8 22.2-76.4 2.3-5.1 3.7-8.6 4.9-11.7 2.5-6.5 14.8-31.9 19-39 1.2-2.2 3.7-6.5 5.3-9.5 6.2-11.4 17.1-27.8 28.1-42.5 7.8-10.5 16-20.9 17.6-22.5.3-.3 3.4-3.9 7-8 18-20.9 39.8-41 68-62.6 8.3-6.5 31.9-22.2 39-26.1 10.7-5.9 13.5-7.5 14.5-8.4 1.3-1.2 3.5-1.1 3.5.2z" fill="currentColor"/></svg>