<svg version="1.0" xmlns="http://www.w3.org/2000/svg" width="1365.333" height="1365.333" viewBox="0 0 1024 1024"><path d="M497.5 80.7c-23.1 1.2-50.2 5.1-68.1 9.9-5.4 1.4-11.2 2.9-12.9 3.3-4.5 1.2-20.3 6.7-29.2 10.2-63.1 25-117.6 69.1-155.2 125.4-6 9-8 12.2-14.3 23-3.7 6.3-15.3 30.6-17.8 37-.4 1.1-1.2 3.1-1.8 4.5-3.3 8-7.5 20.2-9.7 28.5-6.2 22.9-8.6 34.5-10.4 50-3.6 30-4 47.4-1.6 73 2.6 27.8 6.1 46.8 13.7 73.5 5.2 18.3 14 43.7 19.6 56.3 1.1 2.3 3.2 7.1 4.7 10.7 4.4 10.2 24.5 49.5 30.4 59.5 29.4 49.7 58.8 90.5 98 136.5 42.8 50.1 96.4 103 147.1 145.3 20.1 16.8 20 16.7 21.5 16.7 4.8 0 77.7-65 109.5-97.7 46.3-47.4 75.9-82.2 113.5-133.3 14.4-19.6 40.9-61.9 53-84.4 7.5-14 22.5-44.8 22.5-46 0-.3 1.1-3 2.5-6 2.9-6.3 3.6-8.1 7.7-19.1 27.9-75.2 34.5-141.8 20.7-209-1.1-5.7-3.3-14.7-6.4-26-2.4-9.1-6.9-21.8-11.4-32.8-.6-1.5-1.5-3.7-2-5-2.2-5.2-14.4-29.6-17.1-34.2-1.7-2.8-3.3-5.7-3.7-6.5-1.5-3.5-18.9-28.4-26.9-38.5-11.3-14.1-36.8-39.7-50.9-50.9-44.8-35.5-95.4-58.8-149-68.5-15.9-2.8-26-4-44-5.1-15.4-1-18.8-1-32-.3zm38.9 177.9c60.4 9.6 110.2 53 128 111.6 5.4 17.7 6.9 30.9 6.3 52.3-.6 19.8-2.6 30.7-8.7 48-23.9 67.2-92 111.6-161.7 105.5-23.9-2.1-40.3-6.5-59.8-16.3-38.5-19.2-66.9-51.9-80.6-92.7-10.7-32.1-10.7-68.9 0-101 15.6-46.6 51.7-83.5 97.7-99.9 9.1-3.3 22.9-6.6 34.4-8.4 7.2-1.2 35.1-.6 44.4.9z" fill="currentColor"/></svg>