<svg version="1.0" xmlns="http://www.w3.org/2000/svg" width="1365.333" height="1365.333" viewBox="0 0 1024 1024"><g fill="currentColor"><path d="M369 43.6c-17.2 1.3-34.5 4-55 8.4-9.2 2-30.8 8.3-37.5 11-1.1.4-6.9 2.7-13 5.1-13.5 5.2-36.1 16.1-47.5 23-4.7 2.8-10.1 6-12 7.1-1.9 1.1-5.3 3.3-7.5 4.9-2.2 1.6-7.1 5.1-11 7.8-22.7 15.8-51 43.4-71.7 69.9-6.5 8.3-19.6 27.9-25.8 38.7-6 10.3-17.3 33.4-21 43-8.5 21.6-13.9 39.6-17.9 59.5-5.9 29.3-6.6 37.1-6.6 71 0 32.1.7 40.1 5.6 66 1.3 6.9 4.8 21.7 5.9 25 .4 1.4 1.3 4.5 2 7 1.6 5.8 4.9 15.9 6 18.5.4 1.1 2.7 6.9 5.1 13 6.3 16.1 19.8 42.7 27 53.2 1.6 2.3 2.9 4.5 2.9 5 0 .4 1.7 3 3.8 5.8 2.1 2.7 5.3 7.2 7.2 10 3 4.4 10.4 13.9 18 23 5.8 7 28.2 29.3 37 36.9 12.4 10.7 16.8 13.7 26.3 17.5 3.6 1.4 20.8 1.4 24.4 0 15-6.1 23.8-14.9 29.3-29.6 1.6-4.1 1.5-20.5 0-24.6-4.3-11.3-8-15.9-24-29.4-10.9-9.2-25.7-24.5-34-35.3-1.9-2.5-3.8-4.7-4.1-5-.9-.8-14.6-21.5-17.3-26.2-8.6-14.9-20.3-41.4-23.7-53.6-.5-1.7-1.4-4.9-2-7-6.1-21.7-9.9-48.6-9.9-69.8 0-19 3.7-48.9 8-64.7.5-2 1.4-5.2 1.9-7 5.2-18.9 14.5-40.9 26-61 4.1-7.2 16.5-25.2 22.5-32.6 8-10 29.2-31.1 38.6-38.7 33.7-27.1 73.4-46 114.5-54.5 17.5-3.6 39.1-5.9 55.5-5.9 14.6 0 40.2 2.5 51.8 5.1 14.1 3.1 18.8 4.3 24.2 5.9 1.4.4 4.5 1.4 7 2.1 2.5.7 5 1.5 5.5 1.9.6.4 3 1.3 5.5 2s5 1.7 5.5 2c.6.4 3.7 1.7 7 3 10.5 4.2 32 15.6 42 22.4 29.6 19.9 54.8 45 74.2 73.7 7.1 10.4 9.3 14.3 16.7 29.4 8.6 17.4 11.1 23.5 15.3 37 .8 2.7 1.9 6 2.4 7.3.5 1.3.9 3 .9 3.8 0 3.1 6.9 16 10.7 20 3.8 4.1 10.6 9 15.3 11.1 6.6 2.9 11.7 3.3 42.8 3.3 30 0 37.9.5 52.2 3.2 6.2 1.2 18.2 4.5 22 6 1.4.6 3.4 1.4 4.5 1.8 6 2.2 21 10 27.5 14.3 22.5 15 39.3 33.9 50.9 57.2 6.4 12.8 8.2 17.7 11.2 29.5 9 35.1 5.4 68.5-10.7 101.7-14.5 29.6-37.8 52.5-69.8 68.4-16.2 8-24 15.8-28.5 28.5-2.3 6.7-2.9 18.7-1 24.5 3.9 12.4 12.4 22.6 22.9 27.6 12.8 6 21.8 6.7 33.5 2.3 4.9-1.8 24.4-11.7 28.2-14.2 2.3-1.5 4.4-2.8 4.8-2.8 1.4 0 19-12.6 29-20.9 1.7-1.4 8.4-7.9 15-14.6 17.7-17.8 30.2-35 41.4-56.9 8.1-15.8 13.7-29.5 17.1-42.1 2.8-10.3 3.9-14.7 4.8-20 .6-3.3 1.7-9.2 2.4-13 1.7-9.5 1.7-54.6 0-64-.7-3.9-1.8-9.7-2.4-13-.9-5.3-2-9.7-4.8-20-6.1-22.7-20.5-51.9-35.5-72.3S901.6 330.1 884 318c-1.9-1.3-3.7-2.7-4-3-.7-.9-9.8-7-10.3-7-.3 0-3.4-1.7-6.8-3.8-12.1-7.2-35.3-17.5-45.6-20.3-1.8-.5-4.8-1.3-6.5-1.8-23.4-6.6-46-9.7-75.2-10.4l-9-.2-1.6-4.5c-2.6-7-3.1-8.1-5.7-14-4.9-10.7-12.4-25.6-15.3-30.5-1.7-2.8-3.3-5.7-3.7-6.5-1.1-2.6-18.3-28-23.6-34.9-16.1-21.1-37.8-43.5-57.4-59.2-10.7-8.6-38.1-27.9-39.7-27.9-.2 0-3.3-1.8-6.9-3.9-9.8-6-43.4-22.1-46-22.1-.8 0-1.7-.3-2-.7C523 65.7 493.1 56 481 53.2c-16.3-3.8-21.3-4.8-30.5-6.1-3.8-.6-9.9-1.5-13.5-2.1-6.3-1.1-59-2.2-68-1.4z"/><path d="M333 469.9c-11.1 1.6-25.4 12.3-30.5 22.8-5.1 10.3-5.4 14.1-5.4 62.3 0 32.8.3 46.1 1.3 50.6 7.5 34.9 49.4 47.4 73.5 21.9 5.3-5.5 8.5-11.1 10.7-18.4 1.8-5.9 2.1-101.7.3-107.2-4.9-15.2-13.8-24.6-29-30.7-3.6-1.4-15.4-2.2-20.9-1.3zm342.5.1c-16.5 2.3-29.5 14.1-35.3 32.1-1.9 5.6-1.6 100.9.2 107 4.6 15.1 15.5 25.8 31.5 30.8 5.5 1.8 16.1 1.3 23.1-1 15.9-5.2 27-18.3 29.9-35 1.5-9.1 1.5-88.9-.1-97.8-.6-3.6-1.5-7-2-7.6-.4-.5-.8-1.5-.8-2.2 0-2.4-6.9-12-11.4-16-9.6-8.5-22-12.1-35.1-10.3zM503 555.4c-15.5 3.4-26.6 13.6-33.1 30.6-1.1 2.8-1.4 14-1.4 54.5 0 54-.1 52.1 4.8 62.3 7.7 16 27.6 26.3 44.5 23.1 17.1-3.2 28.5-13.2 35.3-30.9 1.1-2.8 1.4-14 1.4-54.5s-.3-51.7-1.4-54.5c-6.6-17.3-17.5-27.2-33.5-30.6-7.3-1.6-9.4-1.6-16.6 0zM332.9 725.9c-11.3 1.7-26 12.9-30.9 23.6-4.8 10.6-5 12.6-5 62.3.1 45 .6 54.1 3.3 56.8.4.4.7 1.4.7 2.1 0 2.5 7.7 12.8 12.1 16.4 4 3.2 9 5.9 16.2 8.8 3.6 1.4 18 1.4 22.6 0 14.3-4.5 24.9-14.6 29.8-28.2 2.3-6.1 2.3-6.9 2.3-56.3 0-33.7-.4-51.2-1.1-53.5-4.9-15-14-24.7-29-30.7-3.6-1.4-15.4-2.2-21-1.3zm343.1-.2c-15.8 1.8-30.3 14.8-35.9 32.2-.7 2.3-1.1 19.8-1.1 53.4 0 48.6.1 50.2 2.1 56.1 4.9 13.7 15.6 23.9 30 28.5 4.5 1.4 17.5 1.4 22 0 3.6-1.1 12-5 12.9-5.9.3-.3 2.2-1.8 4.2-3.3 3.7-2.7 11.8-13.5 11.8-15.7 0-.5.4-1.8.9-2.8 2.7-5.3 3.1-13 3.1-57-.1-49.4-.3-52-5.5-62.6-4.4-9-14.7-17.5-26-21.4-3.6-1.3-13.6-2.1-18.5-1.5zm-173 85.7c-15.4 3.4-25.3 12.5-33.4 30.5-.7 1.6-1.1 19.6-1.1 55v52.6l3.6 7.5c6.2 12.6 16.5 20.9 30.6 24.6 6.9 1.8 10.8 1.8 17.8-.1 13.9-3.6 24.3-12.1 30.6-25l3.4-7v-52c0-41.3-.3-52.7-1.4-55.5-6.6-17.3-17.5-27.2-33.5-30.6-7.3-1.6-9.4-1.6-16.6 0z"/></g></svg>