<svg version="1.0" xmlns="http://www.w3.org/2000/svg" width="1365.333" height="1365.333" viewBox="0 0 1024 1024"><g fill="currentColor"><path d="M492 .9c0 .4-2.9 1.1-6.3 1.5-13.2 1.3-34.5 8-50.2 15.8C407.6 32 383.8 53.6 366.3 81c-4.8 7.4-13.3 24.3-13.3 26.3 0 .8-.3 1.7-.7 2-.9.9-4.3 10.4-5.3 14.7-2.6 10.8-4 17.2-5.2 23-1.1 5.3-1.3 46.6-1.3 218.7V578L329 589.7c-6.4 6.5-13.9 14.5-16.6 17.8-4.9 5.8-19.4 26.9-23.2 33.7-2.7 4.8-12.3 23.9-13.2 26.3-9.2 23.8-13.6 38.2-16 52-.7 3.8-1.6 9-2 11.5-.5 2.5-1.4 11.9-2.1 21-2.8 37.4 2.9 72.4 18.3 113.5 2.5 6.6 12.7 26.5 18.2 35.5 34.8 57 90.2 98.2 154.6 114.9 23 6 35.7 7.5 64.5 7.5 28.8 0 41.5-1.5 64.5-7.5 72.9-18.9 133.5-68.8 166.7-137.2 2.9-5.9 5.9-12.6 6.7-15 .8-2.3 2.6-7.1 4-10.7 2.7-6.8 6.9-22 9.1-33 4.8-23.9 6.2-45.2 4.6-67.5-.6-9.1-1.5-18.7-2-21.3-.5-2.6-1.4-7.9-2.1-11.7-.7-3.9-2.1-10.2-3.1-14-1.1-3.9-2.4-8.8-3-11-1-3.5-5.4-15.7-8-22.3-.5-1.2-1.3-3.2-1.8-4.5-.9-2.5-10.4-21.5-13.2-26.4-4-7-18.4-28-23.2-33.8-2.8-3.3-10.3-11.3-16.7-17.8L682.5 578V365.7c0-172.1-.2-213.4-1.3-218.7-1.2-5.8-2-9.5-5.2-23-1.3-5.8-6.5-19-10.9-28-17.2-34.7-46.9-63.7-81.6-79.6-15.8-7.3-34-12.8-46.1-14-3.5-.4-6.4-1.1-6.4-1.5 0-.5-8.8-.9-19.5-.9S492 .4 492 .9zm40.5 88.3c16.9 4.2 33.6 15.1 45.4 29.4 2.8 3.4 5.1 6.4 5.1 6.8 0 .3 1.3 2.8 3 5.6 1.6 2.7 4.1 8.5 5.6 12.8 5.4 16.1 5.4 12.3 5.4 251.3v220.7l19.3 17.5c19.7 17.9 29.1 28.5 39 43.7 12.4 19.3 20.5 40.7 24.8 66 1.7 9.8 1.7 41.4 0 51-6.6 38.2-22.3 69.1-48.1 95-42.8 42.8-103.7 59.6-162.5 44.9C409.8 919 361.4 870.5 346.6 811c-4.3-17-5.1-23.7-5-43 .1-24.2 3.1-40.6 11-61.1 10.9-28.2 25-47.4 54.5-74l18.9-17.1V395.2c0-239.1 0-235.3 5.4-251.4 1.5-4.3 4-10.1 5.6-12.8 1.7-2.8 3-5.3 3-5.6 0-.4 2.3-3.4 5.1-6.8 21.7-26.4 54.8-37.6 87.4-29.4z"/><path d="M469 494.8v152.7l-9.6 4.4c-19.7 9.1-38.2 23.9-50.6 40.6-11.4 15.2-20.8 38-23.7 57.2-1.4 9-1.4 28.7-.1 37.3 8.3 53.6 47.8 95.2 101.3 106.7 11.5 2.5 38.9 2.5 50.4 0 48.5-10.4 86-45.8 98.3-92.7 5.4-20.4 5.5-43 .4-64-8.9-36.6-35.9-68.6-71.7-85l-9.7-4.5V342h-85v152.8z"/></g></svg>